<svg width="1867" height="450" viewBox="0 0 1867 450" fill="none" xmlns="http://www.w3.org/2000/svg">
<path d="M-6.19478 6.40891L-6.45166 3.69491H-5.90267H-5.89553L-5.8884 3.6947C271.71 -4.23238 517.761 -3.7732 719.469 82.6959L719.667 82.2364L719.47 82.696C815.755 123.946 893.099 182.539 967.983 239.268L968.12 239.372C1000.33 263.774 1033.65 289.007 1068.15 312.595C1167.72 380.718 1322.29 459.037 1493.09 445.139L1493.04 444.641L1493.09 445.139C1640.4 433.037 1754.18 357.979 1867.24 275.547C1867.24 275.546 1867.24 275.546 1867.24 275.546L1867.71 275.215L1871.81 277.028C1757.88 360.072 1643.43 435.556 1493.93 447.807L1493.96 448.206L1493.93 447.807C1480.3 448.931 1466.56 449.497 1452.79 449.5H1452.57C1365.36 449.5 1227 426.022 1063.44 314.137L1063.16 314.55L1063.44 314.137C1029.05 290.641 995.796 265.448 963.63 241.07C963.629 241.069 963.628 241.068 963.627 241.068L963.281 240.798L963.275 240.793L963.215 240.748C888.538 184.183 811.346 125.714 715.733 84.743C515.462 -1.0781 270.42 -1.49202 -5.77799 6.40891H-6.19478ZM964.341 240.793L964.346 240.797L964.78 241.117C964.781 241.117 964.781 241.117 964.781 241.118C996.945 265.494 1030.22 290.677 1064.55 314.165C1154.62 375.782 1295.07 449.254 1452.57 449.254C1466.26 449.247 1479.93 448.688 1493.48 447.582C1642.07 435.38 1756.37 360.247 1869.79 277.54L1870.49 277.032L1869.7 276.679L1868.03 275.932L1867.77 275.813L1867.53 275.984C1754.38 358.439 1640.63 433.262 1493.09 445.389C1321.62 459.384 1166.67 380.915 1066.78 312.592C1032.3 288.995 998.957 263.751 966.746 239.348C892.05 182.669 814.535 124.03 718.326 82.7988C517.218 -3.39692 271.735 -3.95975 -4.90624 3.91648L-5.39201 3.93031V4.41628V5.61277V6.12715L-4.87783 6.11257C58.3971 4.31791 119.954 2.94715 179.708 2.94715C381.168 2.94715 562.123 18.4527 716.657 84.6652C811.767 125.426 888.633 183.548 962.891 239.696L964.341 240.793Z" stroke="white" stroke-opacity="0.19"/>
</svg>
