<svg width="307" height="357" viewBox="0 0 307 357" fill="none" xmlns="http://www.w3.org/2000/svg">
<path d="M303.567 50.1718L303.566 50.1685C303.377 47.8284 303.051 45.5013 302.59 43.1994C300.321 32.4018 295.126 22.4364 287.572 14.3939C279.467 5.88148 269.828 1.18819 259.653 0.724781C246.952 0.147165 235.882 6.13023 228.803 11.2835C222.883 15.6275 217.789 20.9739 212.839 26.1704C212.839 26.1706 212.839 26.1707 212.839 26.1708L212.82 26.1908C207.013 32.3018 200.961 38.6711 193.559 43.2135C177.275 53.2129 158.101 55.1934 144.933 55.1167L144.932 55.1167C133.932 55.0253 122.757 53.7665 111.89 52.5422C111.166 52.4607 110.443 52.3792 109.722 52.2983L109.718 52.2979C95.4586 50.5856 80.7754 48.8286 66.2538 49.6261L66.2536 49.6261C52.4709 50.3768 38.8696 54.2062 27.9689 60.3942L27.9684 60.3944C15.5898 67.4022 7.03472 77.2474 3.2269 88.811L3.22685 88.8111C-3.5709 109.434 4.08714 124.65 12.3118 140.941C15.427 146.861 18.2257 152.942 20.6961 159.158L20.6991 159.166L20.699 159.166C25.4759 171.768 28.1578 185.067 28.6384 198.535C29.1628 212.004 27.3687 225.462 23.3345 238.323L23.334 238.324C21.8629 242.957 20.0723 247.623 18.344 252.126L18.3009 252.238L18.3008 252.239L18.2984 252.245C14.0565 263.319 9.70049 274.69 9.63257 286.586L9.63257 286.586C9.55553 298.946 14.2475 311.238 23.2196 322.102C31.8252 332.328 42.837 340.255 55.2652 345.171L55.2654 345.171C68.483 350.405 84.8745 353.824 104.017 355.321C120.684 356.53 137.418 356.465 154.075 355.127L154.078 355.127C166.238 354.209 181.847 352.197 195.256 344.71L195.258 344.709C201.568 341.222 207.083 336.459 211.451 330.724L211.454 330.721C215.815 325.092 218.543 318.371 219.339 311.295C219.411 310.533 219.462 309.779 219.493 309.018C219.796 300.246 216.987 291.63 214.231 283.193C212.735 278.689 211.22 273.987 210.189 269.323M303.567 50.1718L210.677 269.215M303.567 50.1718C304.53 61.1823 302.573 71.9297 300.655 82.4481L300.655 82.4485C299.496 88.8401 298.314 95.4333 297.732 102.13L297.732 102.131C296.016 122.534 297.395 143.078 301.824 163.068L301.825 163.069L302.586 166.446L302.586 166.447C304.212 173.61 305.931 181.196 306.212 188.524C306.491 195.845 305.332 202.86 301.241 208.897C295.047 218.042 283.355 223.102 265.236 224.276M303.567 50.1718L303.074 166.336C306.322 180.644 309.999 196.865 301.655 209.177C295.332 218.512 283.446 223.597 265.268 224.775M210.189 269.323L210.677 269.215M210.189 269.323C210.189 269.323 210.189 269.323 210.189 269.324L210.677 269.215M210.189 269.323C207.729 258.273 209.134 249.079 214.377 242.093L214.378 242.092C218.878 236.11 226.344 231.607 236.518 228.655C244.221 226.418 253.345 225.04 265.236 224.276M210.677 269.215C208.239 258.261 209.646 249.23 214.777 242.393C219.19 236.528 226.543 232.069 236.657 229.135C244.313 226.912 253.397 225.538 265.268 224.775M265.236 224.276L265.268 224.775M265.236 224.276C265.236 224.276 265.236 224.276 265.236 224.276L265.268 224.775M195.5 345.147C201.87 341.626 207.438 336.817 211.849 331.027C216.267 325.324 219.031 318.515 219.837 311.346L195.5 345.147ZM195.5 345.147C181.99 352.69 166.287 354.706 154.115 355.625L195.5 345.147ZM301.147 82.5377L301.148 82.532C303.064 72.026 305.035 61.2146 304.065 50.1283C303.874 47.7684 303.545 45.4217 303.08 43.1003L301.147 82.5377ZM301.147 82.5377C299.987 88.9318 298.81 95.5032 298.23 102.173L301.147 82.5377ZM297.685 136.877L297.685 136.878C298.436 145.725 299.767 154.512 301.67 163.184L302.43 166.557C304.077 173.809 305.771 181.395 306.076 188.641L306.076 188.642C306.397 196.848 304.84 203.53 301.135 208.902C294.88 218.132 283.057 223.1 265.211 224.237C253.274 225 244.181 226.365 236.462 228.619L236.461 228.62C226.184 231.598 218.74 236.149 214.271 242.093L214.27 242.094C209.046 248.998 207.608 258.171 210.082 269.374L210.082 269.374C211.11 274.044 212.637 278.713 214.12 283.249L214.122 283.254L214.122 283.254L214.16 283.371C216.864 291.655 219.689 300.311 219.381 309.046M297.685 136.877L218.882 309.028M297.685 136.877C296.678 125.317 296.657 113.692 297.623 102.129C298.186 95.4587 299.385 88.8535 300.552 82.4344L300.556 82.4147C302.96 69.2068 305.25 56.6275 302.435 43.16L302.435 43.1596C300.175 32.3934 295.001 22.4551 287.477 14.4299L287.475 14.427C279.459 6.01167 269.843 1.28579 259.661 0.823037L259.639 1.32253L259.661 0.823042C246.955 0.250801 235.889 6.25797 228.88 11.3712C222.941 15.6947 217.838 21.0674 212.937 26.2278L212.926 26.2395C212.925 26.2396 212.925 26.2398 212.925 26.24C207.042 32.4166 201.016 38.7391 193.625 43.3088C177.342 53.2918 158.183 55.2927 144.951 55.2198C133.199 55.1463 121.324 53.723 109.798 52.3416L109.777 52.3391C95.5827 50.6345 80.8618 48.8703 66.3091 49.6859C52.5371 50.4476 39.0069 54.2241 28.0422 60.4659C15.7032 67.477 7.13842 77.2871 3.33253 88.8546C-3.46321 109.484 4.296 124.85 12.4033 140.906L12.4064 140.912L12.4064 140.912L12.4102 140.919C15.5258 146.843 18.3273 152.927 20.8031 159.145C25.5867 171.756 28.2686 185.066 28.7419 198.546L28.7419 198.547C29.265 212.026 27.4703 225.493 23.4359 238.364C22.0341 242.78 20.3562 247.203 18.7133 251.534C18.6143 251.795 18.5155 252.056 18.4168 252.316L18.3729 252.431C14.1831 263.367 9.81807 274.759 9.75155 286.638C9.67357 299.003 14.3781 311.265 23.333 322.117L23.3363 322.121C31.93 332.325 42.9251 340.234 55.3329 345.135C68.5559 350.391 84.9523 353.799 104.056 355.283L104.059 355.283C120.709 356.477 137.425 356.402 154.064 355.058C166.145 354.127 181.788 352.152 195.196 344.664C201.489 341.177 206.992 336.427 211.36 330.71M297.685 136.877L194.954 344.226C201.187 340.773 206.638 336.067 210.964 330.405M219.381 309.046L218.882 309.028M219.381 309.046C219.381 309.045 219.382 309.045 219.382 309.044L218.882 309.028M219.381 309.046C219.357 309.804 219.311 310.575 219.228 311.329L219.228 311.33C218.429 318.389 215.708 325.093 211.36 330.71M218.882 309.028C218.858 309.778 218.812 310.536 218.731 311.274C217.943 318.242 215.256 324.859 210.964 330.405M211.36 330.71C211.36 330.71 211.361 330.709 211.361 330.708L210.964 330.405M211.36 330.71C211.36 330.71 211.359 330.711 211.359 330.711L210.964 330.405" stroke="black"/>
</svg>
