<svg viewBox="0 0 2048 1329.1012" xmlns="http://www.w3.org/2000/svg"><path d="M292.864 554.44c-6.963 27.65-53.453 12.7-68.608 9.012l12.288-49.152c15.155 3.89 63.693 11.264 56.32 40.14zm-39.73-107.11l-10.855 44.237c12.492 3.072 51.404 15.974 57.548-9.216s-33.587-31.743-46.49-34.815zM450.56 561.2C427.9 650.39 348.315 715.316 253.567 715.316c-112.09 0-202.957-90.867-202.957-202.957s90.867-202.957 202.957-202.957c17.446 0 34.378 2.2 50.534 6.34l-1.406-.305c89.037 22.86 153.786 102.403 153.786 197.07 0 17.287-2.16 34.07-6.223 50.094l.302-1.405zM298.394 431.97l9.216-36.66-20.89-6.143-8.806 35.635-17.818-4.3 9.01-35.84-23.346-4.916-9.216 36.66-14.13-3.278-30.72-7.578-5.94 23.757s16.59 3.89 16.18 4.096c5.937.716 10.495 5.725 10.495 11.798 0 .39-.02.775-.056 1.154l.004-.048-10.445 40.96-14.54 58.368c-1.09 3.332-4.17 5.696-7.803 5.696-.87 0-1.71-.136-2.496-.387l.058.016-16.18-4.097-10.853 26.624 29.08 7.168 15.975 4.096-9.216 37.07 22.322 5.53 9.216-36.66 17.818 4.71-10.035 36.046 22.324 5.53 9.216-36.864c38.093 7.168 66.56 4.3 78.643-30.106 2.668-5.15 4.233-11.24 4.233-17.7 0-16.416-10.114-30.47-24.45-36.274l-.263-.094c15.68-3.273 27.454-16.51 28.462-32.666l.005-.102c4.71-27.034-15.77-41.574-44.237-51.405zm348.16 0h-.225c-7.774 0-15.32.97-22.526 2.798l.63-.136c-7.917 2.028-14.732 4.48-21.24 7.483l.76-.315 30.926-132.915-79.667 12.288-88.064 373.965c8.987 4.453 19.493 8.314 30.448 11.035l1.09.23c8.318 2.212 19 4.358 29.862 5.942l1.677.2c7.68 1.157 16.805 1.966 26.065 2.245l.354.008h16.794c.333.002.727.004 1.12.004 23.748 0 46.315-5.052 66.686-14.14l-1.04.415c20.818-9.223 38.558-21.716 53.41-37.027l.042-.042c30.173-31.528 48.747-74.372 48.747-121.554 0-.466-.002-.932-.005-1.398v.07c.007-.54.01-1.182.01-1.823 0-14.273-1.872-28.11-5.384-41.275l.253 1.116c-3.69-13.418-9.674-25.114-17.575-35.242l.166.22c-8.023-9.868-18.005-17.818-29.388-23.328l-.512-.223c-11.858-5.575-25.754-8.83-40.41-8.83-.77 0-1.537.01-2.302.027l.114-.002zm-66.97 219.955H559.31l-6.35-2.048 33.997-140.902c5.607-5.104 12.51-8.883 20.157-10.786l.323-.07c5.558-1.424 12.017-2.38 18.65-2.655l.192-.006c1.073-.127 2.317-.2 3.577-.2 11.06 0 20.825 5.55 26.66 14.017l.072.11c5.228 10.038 8.295 21.922 8.295 34.523 0 1.4-.038 2.79-.113 4.17l.008-.19c0 13.813-2.477 27.048-7.012 39.284l.254-.782c-4.577 12.696-10.746 23.683-18.42 33.43l.193-.252c-6.9 9.435-15.34 17.286-25.02 23.333l-.375.22c-9.782 5.54-21.484 8.805-33.948 8.805h-.05.002zM889.446 437.5H812.85l-64.306 270.336h76.186zm-27.852-32.973c.183.002.4.004.615.004 7.18 0 14.01-1.508 20.186-4.225l-.322.126c6.494-2.796 12.056-6.52 16.814-11.077l-.02.02c4.707-4.586 8.565-10.017 11.332-16.052l.137-.332c2.72-5.83 4.305-12.655 4.305-19.85 0-.222 0-.443-.004-.663v.033c.027-.51.043-1.108.043-1.71 0-11.066-5.287-20.898-13.474-27.106l-.085-.06c-7.797-5.884-17.65-9.423-28.33-9.423h-.36.02l-.452-.002c-7.237 0-14.122 1.508-20.358 4.226l.33-.128c-6.488 2.82-12.046 6.54-16.818 11.082l.024-.022c-4.77 4.587-8.692 10.016-11.533 16.053l-.14.33c-2.718 5.856-4.304 12.712-4.304 19.938 0 .19 0 .38.002.57v-.028c-.06.762-.097 1.65-.097 2.544 0 10.758 5.058 20.334 12.925 26.48l.074.057c7.8 5.885 17.653 9.425 28.335 9.425.19 0 .38 0 .57-.003h-.03zm94.412-34.406L905.83 582.91c-3.688 14.656-6.25 31.768-7.142 49.322l-.026.65c-.09 1.526-.143 3.313-.143 5.11 0 12.952 2.688 25.274 7.54 36.44l-.23-.59c5.923 12.552 15.574 22.533 27.51 28.715l.342.16c14.368 6.7 31.192 10.607 48.93 10.607 2.167 0 4.32-.058 6.46-.174l-.3.013c.89.016 1.938.024 2.99.024 14.026 0 27.703-1.5 40.878-4.35l-1.268.23c13.28-2.608 24.55-5.652 35.51-9.372l-1.923.567-5.735-58.574c-6.395 2.346-14.224 4.54-22.258 6.165l-1.09.185c-7.008 1.434-15.064 2.255-23.31 2.255-.23 0-.458 0-.686-.002h.036c-.84.05-1.825.078-2.815.078-7.275 0-14.192-1.536-20.444-4.302l.323.128c-4.98-2.374-8.86-6.386-11.004-11.325l-.056-.144c-1.648-4.268-2.603-9.207-2.603-14.37 0-1.213.053-2.415.156-3.602l-.01.155c.282-8.275 1.46-16.14 3.442-23.682l-.166.745 22.527-94.618h84.173l15.36-62.67h-84.582l20.48-79.666-79.667 12.288zm142.132 229.786v.243c0 15.695 2.396 30.83 6.842 45.062l-.288-1.07c4.207 14.31 11.26 26.66 20.553 36.947l-.073-.083c9.982 10.644 22.138 19.12 35.773 24.737l.68.248c14.894 5.868 32.144 9.27 50.188 9.27 1.364 0 2.724-.02 4.08-.058l-.2.004c.627.008 1.367.013 2.107.013 13.773 0 27.18-1.57 40.048-4.545l-1.194.232c13.38-3.18 24.592-6.693 35.472-10.877l-1.885.637-5.733-61.44c-6.985 3.025-15.265 5.703-23.837 7.606l-.944.176c-8.56 1.952-18.39 3.072-28.48 3.072h-.418.022c-2.323.403-4.998.634-7.727.634-14 0-26.58-6.08-35.24-15.746l-.04-.045c-7.117-11.022-11.346-24.488-11.346-38.942 0-1.214.03-2.42.09-3.62l-.008.168c-.093-1.647-.146-3.576-.146-5.517 0-24.61 8.462-47.245 22.636-65.153l-.168.22c13.905-16.162 34.38-26.333 57.234-26.333 1.48 0 2.95.043 4.408.127l-.202-.01c.737-.02 1.604-.032 2.474-.032 8.74 0 17.196 1.208 25.213 3.467l-.654-.158c7.373 2.253 14.54 4.71 20.48 7.373l26.214-59.597c-9.452-4.556-20.514-8.493-32.038-11.24l-1.14-.23c-11.674-2.74-25.08-4.312-38.853-4.312-.742 0-1.48.005-2.22.014h.113c-.667-.01-1.455-.016-2.243-.016-23.395 0-45.645 4.904-65.778 13.74l1.052-.413c-20.083 8.865-37.12 21.178-51.104 36.35l-.096.105c-13.76 15.176-24.754 33.155-31.998 52.942l-.36 1.125c-7.138 19.17-11.27 41.32-11.27 64.433 0 .46.003.92.006 1.378v-.07zm337.92 115.098c.83.018 1.808.03 2.788.03 23.19 0 45.014-5.85 64.078-16.153l-.715.354c18.884-10.497 34.704-24.226 47.247-40.6l.266-.36c12.277-15.81 22.118-34.256 28.527-54.24l.35-1.26c6.104-18.332 9.69-39.443 9.83-61.372v-.068c.004-.455.007-.993.007-1.532 0-15.548-2.475-30.518-7.053-44.538l.286 1.014c-4.63-13.635-11.616-25.374-20.56-35.317l.08.092c-9.013-10.004-20.18-17.884-32.79-22.933l-.592-.21c-13.236-5.203-28.565-8.218-44.598-8.218-.88 0-1.76.01-2.637.027l.13-.003c-.777-.017-1.694-.026-2.613-.026-22.74 0-44.134 5.774-62.792 15.936l.69-.344c-18.862 10.65-34.72 24.35-47.458 40.615l-.26.345c-12.57 15.772-22.62 34.223-29.144 54.265l-.348 1.236c-6.27 18.324-9.935 39.437-10.035 61.393v.047c-.01.636-.016 1.387-.016 2.14 0 15.252 2.403 29.944 6.85 43.717l-.28-1.006c4.617 13.638 11.605 25.38 20.558 35.315l-.08-.09c8.947 10 20.048 17.878 32.59 22.933l.59.21c13.205 5.205 28.5 8.223 44.5 8.223.987 0 1.972-.01 2.954-.034l-.147.003zm38.502-219.955c1.037-.123 2.238-.192 3.455-.192 11.068 0 20.796 5.74 26.37 14.403l.076.125c5.262 10.513 8.342 22.904 8.342 36.015 0 1.74-.054 3.467-.16 5.18l.01-.235c-.11 11.976-1.672 23.537-4.517 34.582l.217-.994c-3.19 12.124-7.75 22.754-13.62 32.502l.308-.553c-5.667 9.693-12.846 17.852-21.313 24.434l-.19.142c-7.973 6.138-18.1 9.837-29.09 9.837-.285 0-.57-.003-.855-.007h.043c-1.005.115-2.17.18-3.35.18-11.097 0-20.854-5.73-26.476-14.392l-.076-.123c-5.26-10.513-8.34-22.904-8.34-36.015 0-1.74.053-3.467.16-5.18l-.012.235c.083-11.966 1.647-23.53 4.517-34.565l-.217.978c3.06-12.338 7.56-23.187 13.42-33.138l-.313.575c5.64-9.78 12.825-18.01 21.318-24.64l.186-.14c7.792-5.66 17.548-9.054 28.097-9.054.707 0 1.41.014 2.11.044l-.1-.003zm261.734-57.55h-77.414l-64.307 270.336h76.186zm-7.372-37.07c6.49-2.81 12.05-6.532 16.816-11.08l-.022.022c4.707-4.585 8.565-10.016 11.332-16.05l.137-.334c2.845-6.002 4.506-13.04 4.506-20.468v-.013c.058-.732.09-1.587.09-2.45 0-10.784-5.052-20.388-12.92-26.575l-.072-.055c-7.745-5.758-17.497-9.218-28.057-9.218h-.43.02l-.532-.002c-7.21 0-14.066 1.508-20.272 4.226l.325-.127c-6.487 2.815-12.046 6.537-16.816 11.08l.023-.02c-4.782 4.58-8.706 10.01-11.535 16.054l-.138.33c-2.718 5.856-4.304 12.712-4.304 19.938 0 .19 0 .38.003.57v-.028c-.07.815-.11 1.763-.11 2.72 0 10.517 4.805 19.913 12.34 26.11l.057.047c7.775 5.883 17.606 9.423 28.265 9.423.143 0 .286 0 .43-.002h-.023c.23.004.5.006.773.006 7.197 0 14.042-1.51 20.235-4.23l-.323.128zm0 307.2h76.595l49.97-209.305c9.102-1.93 19.57-3.046 30.292-3.072h.018c.814-.064 1.762-.1 2.72-.1 7.524 0 14.52 2.254 20.354 6.125l-.136-.085c4.732 3.792 8.108 9.104 9.39 15.188l.03.173c.638 3.325 1.004 7.15 1.004 11.06s-.365 7.733-1.063 11.44l.06-.382c-1.23 8.398-2.867 17-4.915 26.01l-33.997 143.36h76.595l35.02-146.02c4.09-11.545 6.454-24.858 6.454-38.723 0-20.86-5.35-40.472-14.752-57.536l.31.618q-22.937-35.02-83.148-35.02c-.54-.004-1.18-.006-1.818-.006-12.273 0-24.39.67-36.313 1.98l1.472-.132c-11.413 1.24-21.386 2.897-31.17 5.06l1.884-.35c-8.807 1.843-16.59 3.89-23.758 6.144l-19.25 5.94z"/></svg>