<svg width="259" height="246" viewBox="0 0 259 246" fill="none" xmlns="http://www.w3.org/2000/svg">
<path d="M57.3604 139.369C59.4294 145.269 56.2341 146.996 51.6859 144.6C38.9148 137.907 38.3331 120.526 35.6075 122.932C23.6639 133.407 26.2593 159.53 38.0706 172.337C52.8893 188.401 69.6679 180.4 74.5669 179.828C78.1265 179.401 83.6881 180.864 83.7314 185.292C83.7894 189.537 76.2615 195.603 81.1748 209.265C89.8348 233.31 124.523 224.505 126.335 223.147C128.147 221.789 128.439 218.671 123.011 216.315C119.125 214.641 117.382 210.674 128.115 212.58C149.175 216.333 160.791 215.456 179.281 183.3C179.794 182.411 178.569 181.701 177.917 182.32C155.764 202.586 115.439 185.538 133.592 179.795C139.258 177.979 146.585 180.199 152.479 181.094C177.518 184.81 194.735 167.89 192.358 150.149C191.768 145.749 186.706 158.954 167.959 160.55C156.319 161.55 143.831 156.3 147.588 151.967C157.327 140.708 216.239 164.244 204.27 111.196C203.293 106.836 200.112 119.879 181.381 128.8C173.497 132.576 150.769 138.136 150.799 130.199C150.729 126.41 157.804 125.55 173.364 121.677C201.82 114.659 209.296 101.385 205.367 73.5246C204.716 68.8713 198.16 83.6048 185.497 89.8675C173.877 95.6174 168.445 90.1336 179.653 81.1341C187.829 74.5661 199.982 71.5643 204.892 61.9475C210.763 50.4475 202.916 35.1002 207.33 27.2486C207.492 26.9658 209.258 24.6462 207.411 24.6183C195.601 24.4648 191.22 23.5061 189.455 27.8624C188.943 29.1499 188.533 32.9148 186.369 33.2406C185.127 33.4285 184.325 27.091 186.753 22.0182C188.208 18.9897 173.927 20.3001 171.23 26.9921C169.325 31.7294 171.904 35.8802 169.344 47.9785C164.622 70.2728 152.934 72.1384 158.689 44.5463C162.762 25.0117 170.583 18.4838 166.954 18.8905C157.723 19.9372 144.878 15.2745 138.232 27.5687C130.259 42.2414 142.005 56.6444 142.64 82.1573C142.723 85.365 143.456 99.7471 136.893 96.5998C129.434 92.9835 138.368 79.9348 131.799 61.8257C129.464 55.3913 126.314 50.2787 126.934 41.8579C127.966 27.6767 137.625 23.4788 134.31 22.7982C127.637 21.408 120.862 26.3826 112.986 30.8068C104.515 35.5688 97.7276 38.3739 99.2431 48.0846C105.037 85.207 120.12 104.914 112.326 122.113C109.968 118.521 89.1614 74.3643 96.8853 44.4297C97.1006 43.5941 96.0303 43.1705 95.477 43.7049C85.315 53.5451 66.8541 60.7206 68.0223 77.7041C69.3319 96.9315 96.1793 109.866 90.7022 128.821C69.2212 100.453 61.4735 92.561 62.6791 81.3799C62.7046 81.2351 62.6881 81.0859 62.6316 80.9502C62.5751 80.8144 62.4809 80.6977 62.3601 80.6138C62.2393 80.5299 62.0971 80.4823 61.9501 80.4767C61.8032 80.4711 61.6577 80.5077 61.5309 80.5822C15.8804 110.951 53.9477 129.636 57.3604 139.369ZM61.0445 82.7017C60.757 94.0612 68.4191 101.981 90.2074 131.112C90.5562 131.577 91.4435 131.692 91.6977 131.044C101.944 105.572 52.6239 87.7521 75.9072 61.9045C81.3283 55.8831 88.5877 51.9609 94.6865 46.6779C88.1599 77.531 111.139 127.975 113.16 124.156C122.269 106.967 109.466 92.9657 101.299 50.4709C99.9308 43.3488 99.8667 40.1666 109.077 34.9262C124.486 26.1561 127.882 24.0072 132.483 24.2759C116.357 43.0945 131.978 58.912 132.649 75.3932C133.065 85.3093 131.055 89.5553 132.524 93.9777C134.055 98.5591 140.451 100.889 142.947 95.7311C153.066 74.8786 122.144 29.5 147.98 21.5471C153.62 19.8134 159.673 21.1712 165.498 20.8691C156.597 37.5613 153.49 58.3722 156.306 63.9173C158.365 67.9829 163.703 69.1078 167.993 58.6393C177.797 34.7061 164.56 22.9865 184.631 22.5722C183.27 26.1584 182.616 34.2752 185.475 35.0391C189.842 36.1811 190.789 28.4851 191.826 27.3651C193.197 25.8757 196.317 26.3042 200.408 26.3583C207.728 26.4594 205.092 25.3092 204.721 32.1801C204.124 41.8219 208.039 52.6959 203.565 61.3438C198.406 71.4605 184.244 73.9297 176.122 82.339C163.596 95.2888 181.88 102.472 203.823 75.8152C205.179 86.4064 205.456 98.2468 198.246 106.847C183.439 124.508 147.634 119.83 148.926 130.81C149.996 139.917 184.075 138.259 202.857 113.634C211.496 153.31 174.854 144.217 154.95 147.644C126.034 152.636 166.43 175.573 190.652 152.229C191.262 164.949 180.886 178.544 162.132 179.891C151.428 180.664 142.945 176.378 134.887 177.805C110.25 182.192 148.167 205.882 175.369 186.528C151.356 227.468 130.77 207.298 120.763 210.641C117.849 211.575 116.964 215.008 120.796 217.298C122.319 218.186 124.434 218.527 125.415 220.145C126.904 222.597 121.677 222.834 120.279 223.061C110.986 224.568 100.851 225.579 92.5913 220.938C86.0654 217.286 81.3925 209.584 81.1983 201.015C80.9737 190.712 89.1356 185.87 82.7058 180.486C96.2254 173.98 105.738 162.605 107.362 162.756C123.709 164.617 140.471 180.059 168.359 168.55C168.943 168.31 168.663 167.402 168.054 167.597C140.771 178.44 124.234 163.535 107.847 161.519C133.652 135.903 118.046 137.145 143.209 140.79C179.949 146.092 187.065 134.645 183.619 136.442C164.576 146.356 140.777 137.789 127.58 137.797C136.261 125.564 143.407 113.193 151.194 100.071C153.223 100.734 176.406 104.132 197.58 93.1361C198.185 92.8269 197.623 91.957 197.028 92.2631C176.29 102.919 159.48 99.2224 151.859 98.9659C159.307 86.4249 166.461 74.766 175.085 63.6018C180.007 64.0513 191.155 61.3193 199.655 54.3217C200.16 53.8975 199.614 53.012 199.093 53.4518C192.561 58.7916 184.496 61.9092 176.071 62.3514C181.89 54.8218 188.406 47.8575 195.532 41.5509C196.535 40.6835 195.346 37.6937 179.411 56.3563C177.301 52.8688 176.111 48.9023 175.954 44.8292C175.797 40.756 176.677 36.7097 178.512 33.0699C178.542 33.0127 178.56 32.9502 178.566 32.886C178.572 32.8217 178.565 32.7569 178.546 32.6953C178.527 32.6337 178.495 32.5765 178.454 32.5269C178.413 32.4774 178.362 32.4365 178.305 32.4065C178.248 32.3766 178.185 32.3582 178.121 32.3524C178.057 32.3466 177.992 32.3535 177.93 32.3728C177.869 32.392 177.811 32.4232 177.762 32.4646C177.712 32.506 177.671 32.5567 177.641 32.6139C175.631 36.4555 174.661 40.7565 174.827 45.0894C174.994 49.4222 176.293 53.6358 178.593 57.3114C169.931 67.6055 162.481 78.9289 155.443 90.4247C155.439 75.1055 144.995 64.3704 148.852 38.9826C148.961 38.3071 147.91 38.0767 147.804 38.7617C143.484 65.9467 155.059 76.2143 154.096 92.316C154.062 92.8311 137.112 121.763 127.118 135.928C113.954 98.8781 127.455 78.2864 115.56 55.226C115.279 54.6756 114.498 55.1883 114.748 55.7383C125.645 77.2597 113.474 110.751 126.221 137.192C121.913 143.302 117.248 149.152 112.25 154.711C113.666 139.892 91.5915 104.626 84.7927 78.0009C84.6096 77.4295 83.7746 77.7075 83.9165 78.2816C90.265 105.828 112.456 138.673 110.901 155.941C110.741 157.767 91.1371 174.781 90.3462 173.722C84.942 166.359 57.0305 173.896 48.0495 152.16C45.8317 146.811 45.8367 166.719 76.4298 170.862C82.1039 171.627 85.5172 171.268 89.369 174.539C89.4662 174.613 90.4755 174.027 81.4129 179.629C72.0865 174.217 63.8134 186.97 46.567 177.322C29.9363 168.024 25.2854 143.514 32.1315 129.748C38.1712 117.596 34.6504 133.414 47.3091 143.786C55.8424 150.755 61.4998 146.716 58.8262 138.962C55.3322 128.877 43.0572 125.47 41.1753 114.092C39.0579 100.405 50.0533 90.1509 61.0445 82.7017Z" fill="white" fill-opacity="0.38"/>
<path d="M94.5628 179.605C95.8782 186.135 103.995 188.134 105.211 183.67C107.126 176.504 94.0758 177.168 94.5628 179.605ZM103.503 181.288C105.371 184.301 101.331 186.047 100.243 184.222C99.2041 183.962 98.259 183.417 97.5137 182.648C96.7684 181.88 96.2524 180.918 96.0239 179.872C98.6584 179.049 101.924 178.654 103.541 181.276L103.503 181.288Z" fill="white" fill-opacity="0.38"/>
<path d="M67.8046 150.891C71.1536 159.573 81.0705 155.293 73.2034 147.324C69.2901 143.369 65.4901 144.881 67.8046 150.891ZM74.9961 152.787C74.5015 154.521 71.2455 155.764 69.1695 150.727C65.3284 141.394 75.7995 149.789 74.9869 152.758L74.9961 152.787Z" fill="white" fill-opacity="0.38"/>
<path d="M123.437 104.944C120.693 112.439 131.348 113.246 130.104 104.908C129.491 100.799 125.9 98.2428 123.437 104.944ZM125.83 103.201C128.304 99.2575 130.944 108.314 126.775 109.429C125.12 109.834 122.961 107.785 125.83 103.201Z" fill="white" fill-opacity="0.38"/>
<path d="M166.754 110.879C173.801 107.015 171.819 102.105 163.376 104.202C150.137 107.488 150.914 119.546 166.754 110.879ZM158.081 108.356C164.342 103.808 173.173 104.465 168.219 108.373C163.687 111.925 157.949 112.567 157.653 113.018C157.585 112.827 157.448 112.667 157.27 112.569C157.092 112.472 156.884 112.443 156.685 112.489C155.953 112.66 154.291 111.113 158.071 108.359L158.081 108.356Z" fill="white" fill-opacity="0.38"/>
</svg>
