<svg width="191" height="211" viewBox="0 0 191 211" fill="none" xmlns="http://www.w3.org/2000/svg">
<path d="M101 179.019C94.7497 178.849 94.0798 182.419 97.7497 186.019C108.02 196.139 124.75 191.389 123.29 194.719C116.96 209.289 91.2898 214.789 75.4898 207.449C55.6698 198.239 58.1698 179.819 57.2198 174.979C56.5398 171.459 53.4498 166.609 49.2198 167.919C45.1598 169.159 41.6798 178.179 27.1698 177.669C1.62976 176.759 -0.570236 141.039 0.169769 138.899C0.909775 136.759 3.78976 135.529 7.68976 139.979C10.4698 143.169 14.7798 143.619 9.68976 133.979C-0.310242 115.069 -3.02022 103.739 21.9598 76.3188C22.6498 75.5588 23.6998 76.5088 23.3098 77.3188C10.7698 104.599 39.3098 137.799 39.2398 118.759C39.2398 112.809 34.8898 106.509 32.2398 101.169C21.0598 78.4588 31.9198 56.8988 49.5398 53.7488C53.9098 52.9688 42.8798 61.8188 47.0798 80.1588C49.6798 91.5488 58.4898 101.839 61.4698 96.9388C69.2198 84.2288 28.8297 35.3088 82.9997 30.5188C87.4497 30.1188 75.9997 37.1288 73.2197 57.6888C72.0297 66.3488 73.6697 89.6888 81.2197 87.2388C84.8497 86.1488 83.5098 79.1488 82.4498 63.1488C80.4498 33.9088 90.8098 22.7388 118.54 17.9788C123.17 17.1788 111.14 27.9188 109.04 41.8888C107.11 54.7088 113.99 58.2088 119.14 44.7888C122.9 34.9988 122.05 22.5088 129.71 14.8988C138.87 5.79878 155.88 8.58877 162.01 1.98877C162.23 1.74877 163.9 -0.641233 164.49 1.10877C168.24 12.3088 170.49 16.1888 166.88 19.1988C165.81 20.0788 162.35 21.6188 162.7 23.7788C162.9 25.0188 169.18 23.8488 173.27 19.9888C175.71 17.6788 178.82 31.6788 173.27 36.2888C169.34 39.5488 164.6 38.3588 153.86 44.4888C134.07 55.7888 135.86 67.4888 160.38 53.5888C177.74 43.7488 181.57 34.3088 182.29 37.8888C184.11 46.9988 192.47 57.8088 182.79 67.8888C171.25 79.9588 153.95 73.1688 129.46 80.3488C126.38 81.2488 112.46 84.9388 117.46 90.2288C123.18 96.2288 132.88 83.7388 152.13 84.4688C158.97 84.7288 164.8 86.1688 172.63 83.0088C185.82 77.6988 186.87 67.2188 188.53 70.1688C191.89 76.0988 189.22 84.0688 187.41 92.9188C185.46 102.439 184.86 109.759 175.15 111.279C138.03 117.089 114.66 108.739 100.66 121.409C104.8 122.559 153.2 128.899 179.35 112.409C180.08 111.949 180.81 112.839 180.47 113.529C174.2 126.209 173 145.979 156.47 150.049C137.76 154.669 117.25 133.049 100.87 144.049C134.44 155.849 144.32 160.819 154.6 156.259C154.73 156.19 154.877 156.16 155.023 156.173C155.17 156.185 155.31 156.239 155.427 156.329C155.543 156.418 155.632 156.539 155.682 156.677C155.732 156.816 155.742 156.965 155.71 157.109C140.72 209.849 111.31 179.299 101 179.019ZM153.84 158.219C143.11 161.959 133.23 157.079 98.8398 145.219C98.2898 145.029 97.9098 144.219 98.4498 143.779C119.58 126.249 151.6 167.779 169.11 137.719C173.19 130.719 174.71 122.609 177.88 115.189C150.49 130.819 95.4398 124.329 98.4598 121.239C112.05 107.319 129.29 115.239 172.25 110.049C179.45 109.179 182.5 108.269 184.68 97.8988C188.33 80.5488 189.34 76.6588 187.68 72.3588C174.68 93.4588 154.85 83.4088 138.95 87.7988C129.38 90.4288 125.95 93.6388 121.29 93.5888C116.46 93.5288 112.29 88.1488 116.44 84.1988C133.21 68.1988 185.86 83.7988 185.55 56.7688C185.48 50.8688 182.34 45.5188 180.85 39.8788C167.67 53.4488 148.8 62.7588 142.66 61.7688C138.16 61.0488 135.46 56.3088 144.12 49.0288C163.92 32.3888 179.12 41.4188 173.39 22.1788C170.39 24.5688 162.86 27.6688 161.26 25.1788C158.84 21.3688 165.88 18.1188 166.63 16.7888C167.63 15.0288 166.27 12.1888 164.97 8.30878C162.64 1.36878 164.54 3.52876 158.11 5.97876C149.11 9.48876 137.56 9.07876 130.69 15.9788C122.63 23.9788 124.6 38.2188 119.07 48.5188C110.56 64.3988 98.1398 49.1788 116.83 20.1488C106.33 22.0888 94.9698 25.4388 88.9798 34.9288C76.6798 54.4188 92.0598 87.0888 81.2098 89.2088C72.2098 90.9688 63.3898 58.0088 81.1098 32.6088C40.6898 36.4888 60.5298 68.6088 63.3398 88.6088C67.4098 117.669 33.2398 86.1988 48.0798 56.0088C35.7798 59.3088 25.9998 73.3388 30.4398 91.6088C32.9698 102.039 39.6398 108.809 40.7398 116.919C44.0798 141.719 9.94977 112.839 20.0798 81.0288C-11.5802 116.389 13.9098 129.839 13.7798 140.389C13.7798 143.449 10.7798 145.339 7.42978 142.389C6.11978 141.209 5.14975 139.299 3.30975 138.859C0.51976 138.189 1.88976 143.239 2.09976 144.639C3.49976 153.949 5.62976 163.909 12.5698 170.359C18.0398 175.459 26.7998 177.559 35.0198 175.129C44.8998 172.199 47.0198 162.949 54.1098 167.429C56.1798 152.569 64.1097 140.039 63.4697 138.539C56.7097 123.539 36.8898 112.289 39.3398 82.2188C39.3898 81.5888 40.3398 81.5788 40.3398 82.2188C38.3398 111.509 57.5797 122.709 64.4997 137.699C81.0197 105.309 84.5998 120.549 73.4498 97.6988C57.1898 64.3288 65.9198 54.0588 65.2598 57.8888C61.6298 79.0488 77.0498 99.0988 81.0698 111.669C90.0698 99.6688 99.6698 89.0888 109.79 77.6688C108.54 75.9388 98.2298 54.8988 102.24 31.3788C102.35 30.7088 103.35 30.9788 103.24 31.6388C99.4198 54.6388 108.07 69.5188 110.64 76.6988C120.31 65.7788 129.23 55.4088 137.23 43.7888C135.3 39.2388 134.5 27.7888 138.57 17.5588C138.82 16.9488 139.83 17.1988 139.57 17.8288C136.478 25.6788 135.97 34.3103 138.12 42.4688C143.515 34.6297 148.158 26.2995 151.99 17.5888C152.51 16.3688 155.72 16.5888 142.81 37.4588C146.775 38.404 150.915 38.3264 154.842 37.2332C158.769 36.1399 162.354 34.067 165.26 31.2088C165.305 31.1628 165.359 31.1262 165.418 31.1011C165.478 31.076 165.542 31.0628 165.606 31.0623C165.671 31.0619 165.735 31.0741 165.795 31.0984C165.854 31.1227 165.909 31.1585 165.955 31.2038C166.001 31.2491 166.037 31.303 166.062 31.3624C166.088 31.4219 166.101 31.4857 166.101 31.5502C166.102 31.6148 166.089 31.6788 166.065 31.7386C166.041 31.7984 166.005 31.8528 165.96 31.8988C162.915 34.9859 159.115 37.2222 154.938 38.3853C150.761 39.5485 146.352 39.5979 142.15 38.5288C134.99 49.9188 126.48 60.4688 117.68 70.6788C132.27 66.0088 145.68 72.6788 168.68 61.2588C169.29 60.9488 169.83 61.8788 169.21 62.1888C144.64 74.5988 131.33 66.7088 116.29 72.5388C115.81 72.7288 93.4298 97.6988 82.9898 111.539C122.29 112.769 137.78 93.6288 163.37 97.9188C163.98 98.0188 163.73 98.9188 163.13 98.8488C139.31 95.0388 111.13 116.849 82.0597 112.779C77.5563 118.746 73.4091 124.973 69.6398 131.429C83.3198 125.559 123.64 135.819 151.07 134.169C151.67 134.169 151.66 135.049 151.07 135.089C122.9 137.449 84.8498 126.339 68.8798 133.089C67.1898 133.799 56.9698 157.659 58.2198 158.089C66.8798 160.989 68.2197 189.869 91.6598 191.789C97.4297 192.269 78.4697 198.339 65.1898 170.469C62.7298 165.299 62.0298 161.939 57.7398 159.269C57.6398 159.199 57.8898 158.059 55.3198 168.399C63.3198 175.629 53.6998 187.399 68.1498 200.879C82.0798 213.879 106.84 210.829 117.86 200.109C127.59 190.649 113.6 198.829 99.8598 189.939C90.6198 183.939 92.7398 177.319 100.94 177.499C111.61 177.749 118.6 188.399 130.01 186.719C143.69 184.559 150.1 170.959 153.84 158.219Z" fill="white" fill-opacity="0.38"/>
</svg>
