<svg width="314" height="312" viewBox="0 0 314 312" fill="none" xmlns="http://www.w3.org/2000/svg">
<path d="M266.036 311.392C256.016 311.577 246.428 308.864 237.121 306.205C231.444 304.6 225.586 302.938 219.65 301.917C201.467 298.774 182.97 298.705 164.789 301.71L161.718 302.227C148.656 304.468 133.887 306.992 123.324 297.835C115.315 290.862 111.442 278.631 111.493 260.437C111.525 248.544 110.825 239.376 109.285 231.583C107.294 221.298 103.695 213.683 98.6874 208.825C92.8649 203.221 84.8392 201.209 74.8365 202.854C70.6073 203.542 66.3154 204.742 62.1759 205.899C54.443 208.042 46.4507 210.28 38.4987 209.336C37.8036 209.249 37.1082 209.142 36.4304 209.014C30.0339 207.709 24.0783 204.472 19.2177 199.661C14.2804 194.851 10.2946 188.957 7.51407 182.354C1.55447 168.352 0.659132 152.545 0.577901 140.345C0.375197 123.597 1.32162 106.862 3.40896 90.284C5.90313 71.2347 9.96413 55.0969 15.4906 42.2327C20.6773 30.1226 28.4959 19.6439 38.2447 11.7373C48.6307 3.54413 60.0507 -0.357412 71.2721 0.595538C82.0965 1.50581 92.0994 6.70199 101.784 11.724C105.758 13.781 109.868 15.9054 113.963 17.7001C125.225 22.6113 137.157 25.3378 149.236 25.7602C161.318 26.2324 173.379 24.5027 184.942 20.64C190.664 18.6149 196.284 16.2542 201.779 13.5678C216.905 6.51731 231.193 -0.137641 249.512 8.1755C259.766 12.8469 268.197 22.1728 273.822 35.1312C278.77 46.5218 281.405 60.4355 281.256 74.3106C281.093 88.8961 278.624 103.464 276.236 117.561C274.312 128.918 272.312 140.637 271.547 152.363C270.69 165.461 271.332 184.603 279.28 201.429C282.889 209.083 288.214 215.526 293.372 221.762C297.748 227.052 302.28 232.529 305.837 238.805C310.072 246.268 314.844 257.852 313.549 270.668C312.505 280.929 307.608 290.331 299.461 297.843C291.721 304.853 282.385 309.354 272.475 310.853C270.341 311.175 268.191 311.355 266.036 311.392ZM188.487 298.432C198.959 298.251 209.429 299.061 219.784 300.854C225.774 301.884 231.659 303.556 237.354 305.171C249.123 308.504 260.178 311.65 272.356 309.795C282.084 308.315 291.247 303.889 298.842 297.004C306.812 289.665 311.57 280.526 312.574 270.546C313.839 258.07 309.162 246.735 305.01 239.42C301.501 233.234 297.005 227.796 292.657 222.535C287.462 216.25 282.09 209.728 278.417 201.975C270.365 184.911 269.71 165.549 270.574 152.311C271.347 140.555 273.345 128.776 275.278 117.378C277.658 103.332 280.154 88.8134 280.273 74.2787C280.425 60.5736 277.821 46.8393 272.948 35.5974C267.436 22.887 259.207 13.7574 249.152 9.1923C231.196 1.05248 217.097 7.63396 202.158 14.591C196.636 17.291 190.989 19.6655 185.24 21.7046C173.585 25.6002 161.426 27.3419 149.247 26.8601C137.041 26.4449 124.983 23.6935 113.603 18.7269C109.472 16.9229 105.353 14.7886 101.37 12.7218C91.7495 7.74863 81.8107 2.61128 71.2024 1.69701C60.2154 0.759735 49.0185 4.54715 38.8287 12.6367C29.2037 20.4432 21.4846 30.7896 16.3647 42.7466C10.8814 55.5101 6.84611 71.5773 4.36736 90.4863C2.28624 106.998 1.34457 123.666 1.55061 140.347C1.64781 152.437 2.50438 168.094 8.38826 181.898C11.1095 188.361 15.01 194.131 19.8419 198.839C24.5654 203.514 30.3499 206.663 36.5636 207.942C37.2233 208.06 37.9007 208.167 38.5686 208.245C46.349 209.161 54.2518 206.955 61.9216 204.813C66.0882 203.656 70.3981 202.456 74.681 201.747C84.98 200.056 93.2775 202.154 99.3293 207.983C104.501 212.958 108.176 220.822 110.253 231.345C111.804 239.218 112.506 248.456 112.474 260.429C112.426 278.263 116.177 290.216 123.957 296.953C128.532 300.869 134.272 302.954 141.598 303.208C148.051 303.439 154.911 302.313 161.519 301.19L164.599 300.663C172.507 299.339 180.487 298.594 188.487 298.432Z" fill="white" fill-opacity="0.57"/>
</svg>
