<svg width="324" height="406" viewBox="0 0 324 406" fill="none" xmlns="http://www.w3.org/2000/svg">
<path d="M72.5952 377.879C66.573 368.505 63.2862 358.028 60.1165 347.843C58.1696 341.641 56.1652 335.237 53.5657 329.094C45.6164 310.268 34.8525 292.75 21.6399 277.134L19.4004 274.501C9.83687 263.325 -0.966119 250.682 0.694547 235.922C1.97953 224.714 10.1869 214.673 25.7979 205.229C36.0015 199.056 43.4433 193.61 49.2158 188.089C56.8584 180.842 61.2736 173.467 62.5041 166.2C63.8957 157.774 60.9224 149.139 53.6604 140.543C50.5962 136.904 47.0576 133.474 43.6447 130.165C37.2843 123.974 30.691 117.588 26.8455 109.58C26.5135 108.877 26.1983 108.164 25.9108 107.457C23.2859 100.73 22.5725 93.4126 23.8489 86.3083C25.0783 79.1329 27.7934 72.2909 31.8215 66.2178C40.3254 53.2801 53.3375 44.1879 63.7383 37.7461C77.9619 28.8174 92.8475 20.9812 108.266 14.3054C126.039 6.72483 142.235 2.14411 156.486 0.656228C169.892 -0.75931 183.441 1.16384 195.916 6.25303C209.01 11.7951 219.034 20.5533 224.785 31.6564C230.339 42.362 231.743 54.5271 233.109 66.3003C233.673 71.1293 234.258 76.1222 235.118 80.9289C237.502 94.1358 242.15 106.835 248.856 118.473C255.521 130.138 264.061 140.635 274.135 149.549C279.217 153.9 284.528 157.981 290.044 161.773C304.933 172.391 318.993 182.423 322.593 204.074C324.593 216.204 321.541 229.037 313.735 241.114C306.876 251.733 296.502 261.482 284.532 268.58C271.946 276.035 258.026 281.301 244.557 286.399C233.704 290.505 222.499 294.729 212.009 300.123C200.291 306.147 184.274 316.739 174.515 333.03C170.072 340.434 167.67 348.828 165.349 356.957C163.379 363.852 161.34 370.993 158.047 377.628C154.135 385.525 147.006 396.078 135.274 401.54C125.875 405.907 114.958 406.183 103.758 402.402C93.2252 398.744 83.907 392.268 76.8245 383.684C75.2996 381.835 73.8873 379.897 72.5952 377.879ZM38.3146 297.822C44.5974 307.625 50.0301 317.944 54.5538 328.666C57.1774 334.865 59.1895 341.299 61.1388 347.524C65.1716 360.387 68.946 372.477 77.6611 383.02C84.6212 391.441 93.7726 397.793 104.114 401.379C115.062 405.084 125.673 404.813 134.808 400.555C146.231 395.242 153.202 384.909 157.037 377.168C160.281 370.624 162.307 363.538 164.268 356.684C166.61 348.494 169.052 340.015 173.542 332.498C183.444 315.986 199.642 305.266 211.484 299.176C222.004 293.774 233.26 289.517 244.152 285.398C257.574 280.319 271.468 275.105 283.985 267.635C295.811 260.628 306.048 251.002 312.824 240.531C320.483 228.69 323.486 216.15 321.512 204.265C317.976 183.048 304.089 173.155 289.389 162.665C283.846 158.855 278.508 154.756 273.398 150.386C263.242 141.403 254.635 130.819 247.921 119.057C241.134 107.304 236.434 94.4712 234.028 81.125C233.156 76.2792 232.573 71.2724 232.012 66.4297C230.641 54.7424 229.225 42.6686 223.8 32.1652C218.174 21.2918 208.378 12.6849 195.488 7.27421C183.17 2.24978 169.793 0.351728 156.557 1.7505C142.418 3.22659 126.297 7.79484 108.653 15.3168C93.2957 21.9637 78.47 29.7696 64.3058 38.6665C54.0088 45.0658 41.1019 54.0435 32.7237 66.806C28.7806 72.7501 26.1223 79.4466 24.9178 86.4697C23.6783 93.3731 24.3665 100.483 26.9074 107.023C27.1925 107.708 27.4969 108.404 27.8212 109.076C31.5892 116.908 38.1031 123.226 44.4256 129.358C47.8547 132.692 51.4041 136.14 54.5177 139.818C61.992 148.67 65.0515 157.607 63.6008 166.368C62.3662 173.851 57.783 181.428 49.9862 188.88C44.1514 194.453 36.6505 199.936 26.3792 206.153C11.078 215.41 3.03699 225.192 1.81964 236.06C1.14334 242.427 2.71691 248.939 6.78618 255.997C10.3644 262.216 15.3437 268.112 20.1715 273.772L22.4247 276.408C28.1861 283.192 33.4941 290.345 38.3146 297.822Z" fill="white" fill-opacity="0.57"/>
</svg>
