<svg width="1606" height="450" viewBox="0 0 1606 450" fill="none" xmlns="http://www.w3.org/2000/svg">
<path d="M-5.25919 6.40891L-5.48016 3.69491H-5.07755H-5.06925L-5.06096 3.69463C233.734 -4.23257 445.356 -3.77053 618.837 82.6839L619.057 82.242L618.837 82.6839C701.652 123.929 768.178 182.517 832.596 239.249L832.709 239.349C860.414 263.75 889.076 288.984 918.759 312.574C1004.4 380.696 1137.4 459.041 1284.37 445.139C1411.13 433.033 1509.02 357.952 1606.27 275.525C1606.27 275.525 1606.28 275.524 1606.28 275.523L1606.62 275.238L1610.1 277.024L1610.09 277.028C1512.07 360.086 1413.64 435.56 1285.07 447.807C1273.36 448.931 1261.53 449.497 1249.7 449.5H1249.51C1174.52 449.5 1055.52 426.033 914.846 314.159L914.534 314.55L914.845 314.159C885.261 290.663 856.657 265.471 828.988 241.093C828.987 241.092 828.986 241.091 828.986 241.091L828.689 240.821L828.683 240.817L828.627 240.767C764.393 184.206 697.986 125.731 615.729 84.7551C443.427 -1.08053 232.61 -1.49183 -4.97246 6.40891H-5.25919ZM829.459 240.77L829.464 240.774L829.836 241.093C829.837 241.094 829.837 241.094 829.837 241.094C857.504 265.47 886.127 290.654 915.66 314.144C993.139 375.76 1113.98 449.254 1249.51 449.254C1261.29 449.247 1273.05 448.688 1284.71 447.581C1412.57 435.376 1510.91 360.22 1608.47 277.517L1609.04 277.036L1608.38 276.692L1606.94 275.944L1606.64 275.789L1606.39 276.006C1509.05 358.466 1411.22 433.267 1284.35 445.389C1136.9 459.379 1003.64 380.937 917.718 312.613C888.058 289.017 859.377 263.775 831.669 239.371C767.417 182.694 700.731 124.048 617.96 82.8108C444.937 -3.39959 233.739 -3.95957 -4.22471 3.91655L-4.70817 3.93255V4.41628V5.61277V6.12953L-4.19169 6.1125C50.2372 4.31786 103.187 2.94715 154.585 2.94715C327.876 2.94715 483.511 18.4526 616.418 84.6531C698.221 125.409 764.336 183.525 828.216 239.677L829.459 240.77Z" stroke="white" stroke-opacity="0.38"/>
</svg>
